<?xml version="1.0" encoding="iso-8859-1"?>
<!-- Generator: Adobe Illustrator 18.0.0, SVG Export Plug-In . SVG Version: 6.00 Build 0)  -->
<!DOCTYPE svg PUBLIC "-//W3C//DTD SVG 1.1//EN" "http://www.w3.org/Graphics/SVG/1.1/DTD/svg11.dtd">
<svg version="1.1" id="Capa_1" xmlns="http://www.w3.org/2000/svg" xmlns:xlink="http://www.w3.org/1999/xlink" x="0px" y="0px"
	 viewBox="0 0 297 297" style="enable-background:new 0 0 297 297;" xml:space="preserve">
<g>
	<path d="M129.805,125.558c-5.618,0-10.174,4.556-10.174,10.175v100.729c0,5.619,4.556,10.175,10.174,10.175
		c5.619,0,10.175-4.556,10.175-10.175V135.732C139.979,130.113,135.424,125.558,129.805,125.558z"/>
	<path d="M79.44,125.558c-5.619,0-10.175,4.556-10.175,10.175v100.729c0,5.619,4.556,10.175,10.175,10.175
		c5.619,0,10.175-4.556,10.175-10.175V135.732C89.615,130.113,85.06,125.558,79.44,125.558z"/>
	<path d="M180.17,125.558c-5.619,0-10.175,4.556-10.175,10.175v100.729c0,5.619,4.556,10.175,10.175,10.175
		c5.619,0,10.175-4.556,10.175-10.175V135.732C190.345,130.113,185.789,125.558,180.17,125.558z"/>
	<path d="M265.892,108.77h-41.971V96.186c8.821-5.254,14.756-14.937,14.756-25.999c0-16.577-13.317-30.075-29.725-30.177
		c-9.268-12.438-23.837-19.947-39.484-20.006C160.16,7.527,145.487,0,129.805,0C114.123,0,99.45,7.527,90.143,20.004
		C74.495,20.063,59.928,27.57,50.659,40.01c-16.408,0.102-29.726,13.6-29.726,30.177c0,11.062,5.935,20.745,14.756,25.999v161.643
		c0,2.957,1.287,5.768,3.524,7.7l33.576,28.998c1.849,1.596,4.208,2.474,6.65,2.474H180.17c2.442,0,4.802-0.878,6.65-2.474
		l33.576-28.998c2.237-1.933,3.524-4.743,3.524-7.7v-11.192h41.971c5.618,0,10.175-4.556,10.175-10.175V118.943
		C276.066,113.325,271.51,108.77,265.892,108.77z M50.847,60.357c0.749,0,1.522,0.107,2.364,0.326
		c4.521,1.176,9.256-0.872,11.493-4.969c5.176-9.476,14.993-15.361,25.621-15.361c1.212,0,2.448,0.084,3.782,0.259
		c4.14,0.542,8.176-1.493,10.204-5.134c5.205-9.332,14.973-15.129,25.493-15.129s20.289,5.797,25.494,15.129
		c2.028,3.639,6.069,5.674,10.204,5.134c1.333-0.175,2.57-0.259,3.781-0.259c10.63,0,20.448,5.886,25.623,15.36
		c2.238,4.098,6.982,6.147,11.496,4.969c0.839-0.219,1.61-0.325,2.361-0.325c5.273,0,9.563,4.41,9.563,9.829
		c0,5.419-4.29,9.827-9.563,9.827c-0.755,0-1.532-0.106-2.378-0.325c-4.514-1.166-9.244,0.881-11.479,4.973
		c-5.175,9.474-14.993,15.359-25.623,15.359c-4.034,0-7.952-0.827-11.647-2.458c-1.304-0.576-2.704-0.867-4.109-0.867
		c-0.961,0-1.923,0.137-2.858,0.41c-6.605,1.934-13.625,2.915-20.864,2.915c-7.239,0-14.257-0.981-20.858-2.915
		c-2.305-0.675-4.771-0.514-6.968,0.455c-3.699,1.632-7.62,2.46-11.653,2.46c-10.628,0-20.445-5.886-25.622-15.359
		c-2.233-4.091-6.961-6.143-11.476-4.974c-0.849,0.22-1.627,0.326-2.381,0.326c-5.273,0-9.564-4.408-9.564-9.827
		C41.282,64.768,45.573,60.357,50.847,60.357z M176.384,276.651H83.227l-27.187-23.48V106.458
		c9.108,8.792,21.331,13.911,34.286,13.911c5.616,0,11.103-0.938,16.356-2.797c7.426,1.857,15.188,2.797,23.123,2.797
		c7.936,0,15.697-0.939,23.126-2.797c5.252,1.857,10.737,2.797,16.354,2.797c12.957,0,25.179-5.119,34.287-13.909v146.711
		L176.384,276.651z M255.717,226.286h-30.016v-97.168h30.016V226.286z"/>
	<path d="M82.029,79.293c1.344,0.6,2.749,0.883,4.131,0.883c3.897,0,7.615-2.252,9.302-6.04c0.717-1.611,2.019-2.847,3.668-3.479
		c1.646-0.633,3.441-0.585,5.054,0.133c5.13,2.287,11.147-0.02,13.436-5.151c2.287-5.132-0.018-11.148-5.15-13.436
		c-6.579-2.932-13.905-3.126-20.63-0.544c-6.725,2.58-12.041,7.625-14.968,14.202C74.586,70.994,76.894,77.009,82.029,79.293z"/>
</g>
<g>
</g>
<g>
</g>
<g>
</g>
<g>
</g>
<g>
</g>
<g>
</g>
<g>
</g>
<g>
</g>
<g>
</g>
<g>
</g>
<g>
</g>
<g>
</g>
<g>
</g>
<g>
</g>
<g>
</g>
</svg>
